<?xml version="1.0" standalone="no"?>
<!DOCTYPE svg PUBLIC "-//W3C//DTD SVG 20010904//EN"
 "http://www.w3.org/TR/2001/REC-SVG-20010904/DTD/svg10.dtd">
<svg version="1.0" xmlns="http://www.w3.org/2000/svg"
 width="3300.000000pt" height="1493.000000pt" viewBox="0 0 3300.000000 1493.000000"
 preserveAspectRatio="xMidYMid meet">
<metadata>
Created by potrace 1.16, written by Peter Selinger 2001-2019
</metadata>
<g transform="translate(0.000000,1493.000000) scale(0.100000,-0.100000)"
fill="#000000" stroke="none">
<path d="M6252 11228 c-9 -9 -12 -76 -12 -239 0 -242 3 -259 50 -259 47 0 50
17 50 251 0 133 -4 228 -10 240 -12 22 -59 26 -78 7z"/>
<path d="M2979 11190 c-402 -47 -751 -358 -843 -751 -8 -35 -18 -81 -21 -101
l-6 -38 -173 0 c-256 0 -390 -27 -566 -115 -480 -240 -714 -803 -544 -1310
121 -363 412 -625 804 -723 58 -14 210 -16 1443 -19 l1377 -4 0 -139 0 -140
380 0 380 0 0 140 0 140 173 0 c128 0 195 -5 262 -19 395 -81 683 -415 711
-825 11 -162 -38 -359 -128 -510 -51 -86 -209 -247 -290 -294 -31 -19 -92 -49
-135 -67 -157 -68 -95 -65 -1517 -65 l-1285 0 -3 138 -3 137 -377 3 -378 2 0
-140 0 -140 -184 0 c-308 0 -461 -25 -633 -105 -415 -192 -669 -636 -623
-1090 46 -454 355 -816 808 -947 l77 -23 2207 -2 2207 -3 3 -143 3 -142 375 0
375 0 3 378 2 377 -380 0 -380 0 0 -140 0 -140 -2187 2 c-2486 4 -2223 -7
-2428 93 -228 111 -395 311 -465 555 -31 107 -38 298 -15 411 72 356 344 631
697 703 57 12 136 16 308 16 l230 0 0 -140 0 -140 378 2 377 3 3 137 3 137
1307 4 c1296 3 1308 3 1394 24 485 120 821 519 845 1003 16 331 -100 619 -343
849 -133 126 -284 210 -469 262 -68 18 -113 22 -302 26 l-223 5 0 139 0 139
-380 0 -380 0 0 -140 0 -140 -1302 0 c-825 0 -1336 4 -1393 10 -109 13 -244
57 -345 113 -103 58 -269 223 -327 327 -84 150 -132 357 -119 504 32 341 222
614 523 753 133 61 205 75 425 80 l197 5 6 -38 c12 -79 37 -170 66 -244 61
-159 214 -346 368 -449 324 -219 767 -221 1092 -5 186 124 332 312 399 517
l22 67 616 -2 617 -3 3 -242 2 -243 113 0 113 0 23 115 24 115 117 0 117 0 12
-77 c19 -124 6 -113 137 -113 l114 0 0 225 0 225 135 0 135 0 0 240 0 240
-1138 0 -1138 0 -18 58 c-63 200 -188 377 -360 504 -203 151 -453 217 -707
188z m263 -520 c132 -41 234 -129 294 -255 67 -140 67 -283 -1 -422 -41 -86
-89 -140 -166 -192 -197 -132 -465 -101 -625 71 -180 195 -180 471 1 666 57
62 159 124 231 141 71 17 197 12 266 -9z m1798 -2440 l0 -210 -210 0 -210 0 0
210 0 210 210 0 210 0 0 -210z m-2210 -1980 l0 -210 -210 0 -210 0 0 210 0
210 210 0 210 0 0 -210z m3860 -1980 l0 -210 -210 0 -210 0 0 210 0 210 210 0
210 0 0 -210z"/>
<path d="M6758 10943 c-87 -87 -161 -168 -165 -181 -7 -28 21 -62 50 -62 25 0
347 318 347 343 0 22 -35 57 -57 57 -9 0 -88 -71 -175 -157z"/>
<path d="M29203 10939 c-43 -21 -85 -72 -102 -124 -6 -17 -47 -221 -91 -455
-45 -234 -109 -569 -143 -745 l-62 -320 -100 -7 c-220 -17 -445 -64 -630 -133
-690 -257 -1056 -749 -1032 -1385 6 -161 28 -254 92 -387 85 -175 204 -308
386 -429 163 -109 307 -163 619 -234 101 -23 187 -43 190 -45 4 -2 -56 -307
-131 -677 -76 -370 -138 -679 -139 -685 0 -10 33 -13 135 -13 l134 0 10 38
c28 102 182 735 251 1027 l77 330 129 7 c474 26 821 125 1109 316 189 126 316
259 421 443 154 268 205 688 119 984 -68 233 -214 422 -440 570 -198 130 -364
191 -727 270 -43 9 -78 21 -78 25 0 5 72 319 160 699 112 486 160 709 160 752
0 63 -21 119 -57 151 -56 51 -185 64 -260 27z m-453 -1934 c0 -15 -354 -1972
-366 -2024 -5 -23 -7 -24 -87 -18 -325 23 -609 279 -677 609 -24 116 -26 309
-5 434 44 252 177 505 361 690 164 164 378 274 602 309 123 19 172 19 172 0z
m584 0 c85 -18 213 -80 288 -139 187 -149 278 -362 279 -656 2 -343 -124 -686
-335 -916 -113 -124 -230 -196 -419 -259 -144 -48 -427 -89 -427 -61 0 21 418
2025 425 2036 9 14 108 12 189 -5z"/>
<path d="M9218 10700 c-329 -32 -613 -161 -811 -370 -236 -249 -318 -579 -227
-910 47 -170 171 -358 321 -488 150 -130 339 -249 804 -507 619 -343 686 -385
806 -505 141 -140 206 -276 216 -445 10 -170 -45 -312 -167 -429 -113 -110
-265 -171 -452 -183 -314 -20 -648 115 -915 370 -175 168 -284 318 -400 555
l-75 152 -94 0 -94 0 0 -695 0 -696 96 3 96 3 19 51 c42 112 150 192 271 201
76 6 145 -10 430 -103 261 -85 437 -129 568 -144 145 -17 417 -8 537 19 583
128 963 561 963 1095 0 351 -116 615 -386 875 -168 164 -405 315 -887 568
-378 197 -588 313 -684 375 -116 75 -195 159 -242 258 -35 73 -36 78 -36 196
0 119 0 121 38 196 173 351 756 369 1195 38 103 -77 271 -253 354 -370 37 -52
102 -164 144 -247 l77 -153 93 0 94 0 0 650 0 651 -101 -3 -101 -3 -18 -44
c-9 -25 -32 -62 -49 -83 -84 -100 -153 -97 -576 25 -104 31 -246 64 -315 76
-145 24 -367 33 -492 21z"/>
<path d="M12126 10699 c-77 -12 -167 -62 -225 -124 -189 -199 -147 -513 88
-664 114 -73 278 -80 406 -17 273 135 328 495 106 698 -105 96 -229 132 -375
107z"/>
<path d="M22345 10629 c-236 -43 -431 -78 -433 -78 -2 -1 -1 -9 2 -18 2 -10
12 -53 21 -95 l17 -78 42 0 c58 0 144 -27 184 -57 38 -29 66 -80 89 -165 16
-58 17 -185 21 -1488 2 -980 0 -1454 -8 -1519 -23 -200 -74 -251 -282 -276
l-48 -6 0 -95 0 -94 695 0 695 0 0 94 c0 103 -2 106 -64 106 -44 0 -135 28
-169 52 -29 21 -56 66 -78 133 -11 33 -15 369 -19 1850 l-5 1810 -115 1 c-104
2 -157 -6 -545 -77z"/>
<path d="M6672 10438 c-19 -19 -15 -66 7 -78 12 -6 98 -10 211 -10 113 0 199
4 211 10 22 12 26 59 7 78 -9 9 -71 12 -218 12 -147 0 -209 -3 -218 -12z"/>
<path d="M11838 9376 c-235 -56 -429 -104 -432 -106 -4 -5 28 -178 36 -185 2
-2 21 0 43 5 71 17 128 12 183 -16 84 -42 128 -126 152 -289 14 -98 13 -1570
-1 -1672 -11 -85 -38 -155 -71 -190 -37 -40 -123 -65 -240 -70 l-108 -6 0 -93
0 -94 770 0 770 0 0 95 c0 52 -3 95 -7 95 -49 2 -197 22 -226 30 -53 16 -109
75 -132 140 -19 53 -20 89 -23 1258 l-3 1202 -142 -1 -142 -1 -427 -102z"/>
<path d="M13605 9376 l-390 -102 -3 -102 -3 -102 71 0 c158 0 230 -82 259
-293 7 -51 11 -347 11 -845 -1 -832 -3 -880 -54 -967 -30 -51 -101 -90 -178
-99 -27 -3 -68 -9 -93 -12 l-45 -5 0 -95 0 -94 755 0 755 0 0 95 0 95 -67 0
c-223 0 -316 69 -343 255 -6 42 -10 386 -10 855 l0 785 85 60 c193 136 335
193 502 202 241 14 368 -68 425 -272 22 -79 22 -91 26 -829 2 -501 0 -772 -8
-818 -12 -82 -38 -136 -80 -171 -35 -30 -116 -57 -171 -57 -20 0 -51 -3 -68
-6 l-31 -6 0 -94 0 -94 750 0 750 0 0 93 0 93 -119 11 c-172 17 -221 42 -260
133 -38 87 -42 198 -39 995 l3 760 75 52 c91 63 270 154 365 185 58 19 92 23
195 23 116 0 129 -2 185 -28 79 -37 126 -85 164 -166 58 -127 61 -170 61 -945
0 -431 -4 -726 -10 -766 -6 -36 -22 -89 -36 -118 -41 -84 -93 -109 -266 -127
l-58 -6 0 -95 0 -94 720 0 720 0 0 94 0 95 -45 5 c-25 3 -65 8 -89 11 -61 8
-127 44 -154 84 -57 87 -56 63 -62 986 -6 824 -7 852 -28 931 -58 222 -162
374 -329 484 -147 97 -310 136 -526 127 -305 -13 -577 -137 -881 -402 l-75
-65 -31 59 c-42 78 -129 186 -193 239 -158 130 -329 179 -590 169 -287 -12
-531 -114 -799 -334 l-78 -64 0 201 0 200 -137 -1 -138 -1 -390 -102z"/>
<path d="M18848 9377 l-398 -102 0 -93 0 -92 69 6 c60 6 75 4 125 -19 66 -31
105 -84 139 -192 l22 -70 0 -1505 0 -1505 -23 -56 c-42 -105 -103 -138 -274
-146 l-108 -6 0 -98 0 -99 810 0 810 0 0 98 0 97 -118 1 c-255 2 -337 65 -362
279 -5 50 -10 287 -10 529 l0 438 63 -58 c165 -153 327 -221 553 -231 151 -7
255 7 394 53 197 65 379 184 543 353 172 178 300 395 382 646 67 205 80 294
79 545 0 237 -14 332 -75 515 -138 416 -453 720 -829 797 -124 26 -335 21
-452 -10 -194 -52 -373 -160 -549 -329 l-109 -106 0 232 0 231 -142 -1 -143 0
-397 -102z m1367 -462 c127 -24 216 -74 320 -179 224 -227 327 -578 303 -1033
-24 -453 -208 -767 -508 -869 -87 -30 -263 -26 -352 8 -103 39 -173 85 -253
169 -78 82 -130 165 -167 269 l-23 65 -3 669 c-3 759 -13 677 88 746 144 98
333 165 477 169 23 0 76 -6 118 -14z"/>
<path d="M23710 9272 l0 -97 48 -18 c60 -21 129 -80 175 -149 35 -53 1111
-2380 1110 -2402 0 -19 -189 -499 -221 -562 -54 -105 -118 -154 -222 -169 -67
-9 -178 24 -319 94 -171 86 -250 111 -353 111 -100 0 -164 -26 -227 -90 -67
-69 -86 -120 -86 -230 0 -82 4 -103 27 -153 52 -110 180 -202 338 -244 102
-27 319 -24 435 6 105 27 226 81 316 141 146 98 318 306 409 493 21 45 258
681 525 1412 268 732 507 1377 531 1435 80 189 147 262 275 301 l69 21 0 99 0
99 -470 0 -470 0 0 -100 0 -100 78 0 c100 0 148 -14 190 -56 34 -34 35 -37 30
-97 -3 -35 -25 -120 -50 -194 -68 -201 -491 -1274 -499 -1265 -11 12 -547
1256 -568 1319 -29 86 -34 125 -22 171 20 74 80 106 219 119 l72 6 0 98 0 99
-670 0 -670 0 0 -98z"/>
<path d="M8310 4699 c-62 -25 -100 -85 -100 -158 0 -68 22 -87 190 -164 111
-52 136 -67 144 -90 22 -62 -34 -117 -122 -117 -82 0 -142 43 -142 102 0 27
-2 28 -46 28 l-47 0 7 -42 c10 -64 40 -104 101 -134 48 -23 64 -26 137 -23
105 5 153 28 185 89 36 68 27 136 -23 182 -11 9 -62 35 -114 58 -165 72 -180
80 -186 107 -15 60 51 110 133 100 54 -6 92 -30 105 -68 9 -26 15 -29 50 -29
l41 0 -6 34 c-14 87 -90 136 -208 135 -41 0 -85 -5 -99 -10z"/>
<path d="M9070 4665 c0 -33 4 -45 15 -45 13 0 15 -31 15 -215 0 -184 -2 -215
-15 -215 -11 0 -15 -12 -15 -45 l0 -45 80 0 80 0 0 45 c0 38 -3 45 -20 45 -19
0 -20 7 -20 215 0 208 1 215 20 215 17 0 20 7 20 45 l0 45 -80 0 -80 0 0 -45z"/>
<path d="M9675 4697 c-3 -7 -4 -143 -3 -302 l3 -290 42 -3 43 -3 2 216 3 217
75 -214 c75 -213 75 -213 105 -213 33 0 22 -23 139 305 l45 125 0 -218 1 -218
43 3 42 3 0 300 0 300 -55 0 -55 0 -38 -105 c-20 -58 -56 -160 -80 -227 l-42
-122 -79 229 -79 230 -54 0 c-34 0 -55 -5 -58 -13z"/>
<path d="M10690 4406 l0 -306 40 0 40 0 0 119 0 119 139 4 c123 3 143 5 168
24 48 36 67 80 67 155 0 56 -4 73 -27 108 -45 68 -69 75 -259 79 l-168 4 0
-306z m323 211 c56 -36 59 -137 6 -181 -29 -24 -37 -26 -140 -26 l-109 0 0
108 c0 60 3 112 8 116 14 15 208 1 235 -17z"/>
<path d="M11610 4405 l0 -305 203 2 202 3 0 35 0 35 -157 3 -158 3 -2 262 -3
262 -42 3 -43 3 0 -306z"/>
<path d="M12410 4665 c0 -38 3 -45 20 -45 19 0 20 -7 20 -215 0 -208 -1 -215
-20 -215 -17 0 -20 -7 -20 -45 l0 -45 80 0 80 0 0 45 c0 38 -3 45 -20 45 -19
0 -20 7 -20 215 0 208 1 215 20 215 17 0 20 7 20 45 l0 45 -80 0 -80 0 0 -45z"/>
<path d="M13030 4405 l0 -305 40 0 40 0 0 135 0 135 125 0 125 0 0 35 0 35
-125 0 -125 0 0 100 0 100 160 0 160 0 0 35 0 35 -200 0 -200 0 0 -305z"/>
<path d="M13820 4700 c0 -5 47 -82 105 -170 l105 -161 0 -134 0 -135 40 0 40
0 0 133 0 132 105 163 c58 90 105 168 105 173 0 5 -18 9 -39 9 -38 0 -41 -3
-82 -67 -23 -38 -62 -99 -86 -137 l-44 -68 -85 136 -85 136 -40 0 c-21 0 -39
-4 -39 -10z"/>
<path d="M14720 4665 c0 -38 3 -45 20 -45 19 0 20 -7 20 -215 0 -208 -1 -215
-20 -215 -17 0 -20 -7 -20 -45 l0 -45 80 0 80 0 0 45 c0 38 -3 45 -20 45 -19
0 -20 7 -20 215 0 208 1 215 20 215 17 0 20 7 20 45 l0 45 -80 0 -80 0 0 -45z"/>
<path d="M15330 4405 l0 -305 40 0 40 0 2 233 3 232 139 -232 138 -233 44 0
44 0 0 305 0 305 -40 0 -40 0 -2 -232 -3 -233 -138 233 -138 232 -44 0 -45 0
0 -305z"/>
<path d="M16414 4696 c-52 -23 -110 -83 -133 -135 -48 -112 -34 -268 32 -360
70 -97 217 -132 316 -76 23 14 44 25 46 25 2 0 6 -11 9 -25 5 -21 12 -25 41
-25 l35 0 0 155 0 155 -95 0 -95 0 0 -35 0 -35 51 0 52 0 -6 -46 c-12 -114
-156 -164 -247 -87 -55 46 -74 97 -75 198 0 77 4 97 25 139 36 71 67 91 145
91 57 0 67 -3 95 -30 17 -16 34 -43 38 -60 7 -27 12 -30 54 -33 l46 -3 -8 37
c-12 53 -58 114 -105 138 -51 26 -175 33 -221 12z"/>
<path d="M17850 4404 l0 -307 138 5 c152 5 195 17 249 70 56 54 77 119 78 234
0 92 -3 106 -30 159 -37 72 -95 119 -165 134 -28 6 -100 11 -160 11 l-110 0 0
-306z m278 212 c43 -22 70 -60 88 -124 33 -112 0 -239 -75 -289 -29 -20 -47
-23 -122 -23 l-89 0 0 223 c0 123 3 227 8 231 12 13 156 -1 190 -18z"/>
<path d="M18861 4424 c-63 -158 -116 -295 -119 -306 -4 -17 0 -19 39 -16 l44
3 37 90 36 90 114 0 113 0 37 -90 36 -90 41 -3 c30 -2 41 1 41 11 0 7 -51 144
-114 303 l-114 289 -39 3 -39 3 -113 -287z m156 -62 c-44 -2 -81 -1 -84 1 -3
4 27 90 67 192 11 30 12 28 54 -80 l42 -110 -79 -3z"/>
<path d="M19677 4704 c-4 -4 -7 -20 -7 -36 l0 -28 100 0 100 0 0 -270 0 -270
45 0 45 0 0 270 0 270 101 0 100 0 -3 33 -3 32 -236 3 c-129 1 -238 -1 -242
-4z"/>
<path d="M20771 4688 c-5 -13 -57 -144 -115 -293 -58 -148 -106 -276 -106
-283 0 -9 12 -12 41 -10 l40 3 38 90 37 90 113 0 113 0 36 -90 37 -90 44 -3
c39 -3 43 -1 39 16 -3 11 -56 148 -118 306 l-113 286 -39 0 c-31 0 -40 -5 -47
-22z m93 -221 c20 -53 36 -100 36 -102 0 -3 -38 -5 -84 -5 l-83 0 41 109 c23
60 44 107 47 103 4 -4 23 -51 43 -105z"/>
<path d="M22140 4404 l0 -305 43 3 42 3 3 118 3 117 121 0 c102 0 128 3 164
21 99 47 115 222 29 298 -49 43 -90 51 -257 51 l-148 0 0 -306z m291 226 c20
-6 44 -19 53 -29 24 -26 32 -93 16 -131 -20 -48 -55 -60 -170 -60 l-100 0 0
115 0 115 83 0 c45 0 98 -5 118 -10z"/>
<path d="M23070 4411 l0 -301 40 0 39 0 3 128 3 127 85 3 85 3 65 -131 64
-130 49 0 48 0 -70 133 -70 133 34 13 c51 18 79 70 79 145 -1 72 -20 114 -66
148 -31 22 -43 23 -210 26 l-178 3 0 -300z m328 204 c17 -14 33 -39 37 -55 8
-38 -11 -97 -35 -110 -10 -6 -71 -10 -134 -10 l-116 0 0 100 0 100 109 0 c102
0 111 -2 139 -25z"/>
<path d="M24112 4684 c-103 -51 -146 -132 -146 -274 0 -119 23 -179 96 -245
114 -103 291 -78 377 52 82 123 61 337 -41 429 -54 48 -95 64 -171 64 -48 0
-76 -6 -115 -26z m193 -67 c58 -33 87 -92 93 -188 6 -100 -15 -165 -67 -212
-63 -57 -151 -57 -214 1 -78 70 -88 272 -19 354 59 70 134 86 207 45z"/>
<path d="M24927 4704 c-4 -4 -7 -20 -7 -36 l0 -28 100 0 100 0 0 -271 0 -270
43 3 42 3 3 268 2 267 101 0 100 0 -3 33 -3 32 -236 3 c-129 1 -238 -1 -242
-4z"/>
<path d="M25840 4405 l0 -305 205 0 205 0 0 40 0 40 -160 0 -160 0 0 100 0
100 140 0 140 0 0 40 0 40 -140 0 -140 0 0 90 0 90 150 0 150 0 0 35 0 35
-195 0 -195 0 0 -305z"/>
<path d="M26843 4689 c-140 -69 -193 -302 -105 -462 49 -90 116 -127 230 -127
120 0 210 79 227 203 l7 47 -46 0 c-44 0 -46 -1 -46 -28 0 -46 -41 -115 -80
-134 -89 -45 -183 -5 -226 97 -23 54 -23 186 0 240 63 147 227 157 281 17 20
-51 20 -52 64 -52 l43 0 -7 37 c-15 80 -60 140 -127 168 -56 23 -163 20 -215
-6z"/>
<path d="M27620 4675 l0 -35 100 0 100 0 0 -270 0 -270 40 0 40 0 2 268 3 267
98 3 97 3 0 34 0 35 -240 0 -240 0 0 -35z"/>
<path d="M28510 4665 c0 -38 3 -45 20 -45 19 0 20 -7 20 -215 0 -208 -1 -215
-20 -215 -17 0 -20 -7 -20 -45 l0 -45 80 0 80 0 0 45 c0 33 -4 45 -15 45 -13
0 -15 31 -15 215 0 184 2 215 15 215 11 0 15 12 15 45 l0 45 -80 0 -80 0 0
-45z"/>
<path d="M29274 4696 c-90 -39 -153 -140 -162 -256 -12 -175 68 -302 210 -332
120 -25 237 37 289 154 32 73 34 221 3 288 -49 105 -132 160 -243 160 -37 -1
-80 -7 -97 -14z m165 -70 c78 -41 119 -136 108 -252 -10 -106 -56 -171 -137
-195 -77 -23 -166 33 -196 124 -24 71 -16 189 17 247 42 77 138 112 208 76z"/>
<path d="M30110 4406 l0 -306 40 0 40 0 2 233 3 232 139 -232 138 -233 44 0
44 0 0 305 0 305 -40 0 -40 0 -1 -232 c0 -210 -2 -231 -15 -212 -8 12 -71 116
-138 230 l-124 209 -46 3 -46 3 0 -305z"/>
</g>
</svg>
